<mxfile host="Electron" agent="Mozilla/5.0 (Windows NT 10.0; Win64; x64) AppleWebKit/537.36 (KHTML, like Gecko) draw.io/25.0.2 Chrome/128.0.6613.186 Electron/32.2.5 Safari/537.36" version="25.0.2">
  <diagram name="Page-1" id="c4acf3e9-155e-7222-9cf6-157b1a14988f">
    <mxGraphModel dx="1693" dy="997" grid="1" gridSize="10" guides="1" tooltips="1" connect="1" arrows="1" fold="1" page="1" pageScale="1" pageWidth="850" pageHeight="1100" background="none" math="0" shadow="0">
      <root>
        <mxCell id="0" />
        <mxCell id="1" parent="0" />
        <mxCell id="47LJHIuniCc6gDE1EgaM-15" style="edgeStyle=orthogonalEdgeStyle;rounded=1;orthogonalLoop=1;jettySize=auto;html=1;exitX=0;exitY=0.25;exitDx=0;exitDy=0;entryX=-0.001;entryY=0.336;entryDx=0;entryDy=0;entryPerimeter=0;strokeColor=#a114ff;elbow=vertical;" parent="1" source="47LJHIuniCc6gDE1EgaM-5" target="47LJHIuniCc6gDE1EgaM-6" edge="1">
          <mxGeometry relative="1" as="geometry">
            <mxPoint x="37.33333333333333" y="1142.8571428571427" as="targetPoint" />
            <Array as="points">
              <mxPoint x="384" y="217" />
              <mxPoint x="29" y="217" />
              <mxPoint x="29" y="295" />
              <mxPoint x="72" y="295" />
            </Array>
          </mxGeometry>
        </mxCell>
        <mxCell id="47LJHIuniCc6gDE1EgaM-17" style="edgeStyle=orthogonalEdgeStyle;rounded=1;orthogonalLoop=1;jettySize=auto;html=1;exitX=0;exitY=0.25;exitDx=0;exitDy=0;entryX=-0.003;entryY=0.552;entryDx=0;entryDy=0;entryPerimeter=0;strokeColor=#14b9ff;elbow=vertical;" parent="1" source="47LJHIuniCc6gDE1EgaM-5" target="47LJHIuniCc6gDE1EgaM-8" edge="1">
          <mxGeometry relative="1" as="geometry">
            <mxPoint x="46" y="1271.4285714285713" as="targetPoint" />
            <Array as="points">
              <mxPoint x="384" y="234" />
              <mxPoint x="263" y="234" />
              <mxPoint x="263" y="486" />
            </Array>
          </mxGeometry>
        </mxCell>
        <mxCell id="47LJHIuniCc6gDE1EgaM-21" style="edgeStyle=orthogonalEdgeStyle;rounded=1;orthogonalLoop=1;jettySize=auto;html=1;exitX=1;exitY=0.25;exitDx=0;exitDy=0;entryX=-0.005;entryY=0.548;entryDx=0;entryDy=0;entryPerimeter=0;strokeColor=#b3a400;elbow=vertical;" parent="1" source="47LJHIuniCc6gDE1EgaM-5" target="47LJHIuniCc6gDE1EgaM-11" edge="1">
          <mxGeometry relative="1" as="geometry">
            <mxPoint x="167.33333333333334" y="860" as="targetPoint" />
            <Array as="points">
              <mxPoint x="540" y="210" />
              <mxPoint x="566" y="210" />
              <mxPoint x="566" y="590" />
              <mxPoint x="643" y="590" />
            </Array>
          </mxGeometry>
        </mxCell>
        <mxCell id="47LJHIuniCc6gDE1EgaM-22" style="edgeStyle=orthogonalEdgeStyle;rounded=1;orthogonalLoop=1;jettySize=auto;html=1;exitX=1;exitY=0.25;exitDx=0;exitDy=0;strokeColor=#b3a400;elbow=vertical;entryX=-0.01;entryY=0.71;entryDx=0;entryDy=0;entryPerimeter=0;" parent="1" source="47LJHIuniCc6gDE1EgaM-5" target="47LJHIuniCc6gDE1EgaM-11" edge="1">
          <mxGeometry relative="1" as="geometry">
            <mxPoint x="652.6666666666666" y="714.2857142857142" as="targetPoint" />
            <Array as="points">
              <mxPoint x="540" y="217" />
              <mxPoint x="557" y="217" />
              <mxPoint x="557" y="605" />
              <mxPoint x="642" y="605" />
            </Array>
          </mxGeometry>
        </mxCell>
        <mxCell id="47LJHIuniCc6gDE1EgaM-5" value="&lt;div style=&quot;box-sizing:border-box;width:100%;background:#e4e4e4;padding:2px;&quot;&gt;Team&lt;table style=&quot;background-color: initial; font-size: 1em; width: 100%;&quot; cellpadding=&quot;2&quot; cellspacing=&quot;0&quot;&gt;&lt;tbody&gt;&lt;tr&gt;&lt;td&gt;PK&lt;/td&gt;&lt;td&gt;TeamID&lt;/td&gt;&lt;/tr&gt;&lt;tr&gt;&lt;td&gt;&lt;br&gt;&lt;/td&gt;&lt;td&gt;TeamName&lt;/td&gt;&lt;/tr&gt;&lt;tr&gt;&lt;td&gt;&lt;/td&gt;&lt;td&gt;MainStadium&lt;br&gt;City&lt;br&gt;&lt;br&gt;&lt;/td&gt;&lt;/tr&gt;&lt;/tbody&gt;&lt;/table&gt;&lt;/div&gt;" style="verticalAlign=top;align=left;overflow=fill;html=1;whiteSpace=wrap;fillColor=#f5f5f5;fontColor=#333333;strokeColor=#666666;" parent="1" vertex="1">
          <mxGeometry x="384" y="200" width="156" height="85.71428571428571" as="geometry" />
        </mxCell>
        <mxCell id="47LJHIuniCc6gDE1EgaM-19" style="edgeStyle=orthogonalEdgeStyle;rounded=1;orthogonalLoop=1;jettySize=auto;html=1;exitX=-0.002;exitY=0.141;exitDx=0;exitDy=0;exitPerimeter=0;strokeColor=#47ff14;elbow=vertical;entryX=-0.003;entryY=0.371;entryDx=0;entryDy=0;entryPerimeter=0;" parent="1" source="47LJHIuniCc6gDE1EgaM-6" target="47LJHIuniCc6gDE1EgaM-10" edge="1">
          <mxGeometry relative="1" as="geometry">
            <mxPoint x="60" y="505.7" as="targetPoint" />
            <mxPoint x="63.33400000000002" y="270.01546" as="sourcePoint" />
            <Array as="points">
              <mxPoint x="72" y="280" />
              <mxPoint x="10" y="280" />
              <mxPoint x="10" y="506" />
            </Array>
          </mxGeometry>
        </mxCell>
        <mxCell id="47LJHIuniCc6gDE1EgaM-6" value="&lt;div style=&quot;box-sizing:border-box;width:100%;background:#e4e4e4;padding:2px;&quot;&gt;Player&lt;table style=&quot;background-color: initial; font-size: 1em; width: 100%;&quot; cellpadding=&quot;2&quot; cellspacing=&quot;0&quot;&gt;&lt;tbody&gt;&lt;tr&gt;&lt;td&gt;PK&lt;/td&gt;&lt;td&gt;PlayerID&lt;/td&gt;&lt;/tr&gt;&lt;tr&gt;&lt;td&gt;FK&lt;/td&gt;&lt;td&gt;TeamID&lt;/td&gt;&lt;/tr&gt;&lt;tr&gt;&lt;td&gt;&lt;/td&gt;&lt;td&gt;PlayerName&lt;br&gt;Birthday&lt;br&gt;StartYear&lt;br&gt;JerseyNumber&lt;br&gt;TeamID&lt;br&gt;&lt;br&gt;&lt;br&gt;&lt;br&gt;&lt;/td&gt;&lt;/tr&gt;&lt;/tbody&gt;&lt;/table&gt;&lt;/div&gt;" style="verticalAlign=top;align=left;overflow=fill;html=1;whiteSpace=wrap;" parent="1" vertex="1">
          <mxGeometry x="72" y="251.43" width="156" height="128.57" as="geometry" />
        </mxCell>
        <mxCell id="47LJHIuniCc6gDE1EgaM-18" style="edgeStyle=orthogonalEdgeStyle;rounded=1;orthogonalLoop=1;jettySize=auto;html=1;exitX=0;exitY=0.25;exitDx=0;exitDy=0;entryX=-0.004;entryY=0.21;entryDx=0;entryDy=0;strokeColor=#47ff14;elbow=vertical;entryPerimeter=0;" parent="1" source="47LJHIuniCc6gDE1EgaM-8" target="47LJHIuniCc6gDE1EgaM-10" edge="1">
          <mxGeometry relative="1" as="geometry">
            <mxPoint x="132.66666666666669" y="919.9999999999999" as="targetPoint" />
            <Array as="points">
              <mxPoint x="384" y="450" />
              <mxPoint x="37" y="450" />
              <mxPoint x="37" y="490" />
            </Array>
          </mxGeometry>
        </mxCell>
        <mxCell id="47LJHIuniCc6gDE1EgaM-20" style="edgeStyle=orthogonalEdgeStyle;rounded=1;orthogonalLoop=1;jettySize=auto;html=1;exitX=1;exitY=0.25;exitDx=0;exitDy=0;entryX=0.001;entryY=0.39;entryDx=0;entryDy=0;entryPerimeter=0;strokeColor=#b3a400;elbow=vertical;" parent="1" source="47LJHIuniCc6gDE1EgaM-8" target="47LJHIuniCc6gDE1EgaM-11" edge="1">
          <mxGeometry relative="1" as="geometry">
            <mxPoint x="167.33333333333334" y="842.8571428571428" as="targetPoint" />
            <Array as="points">
              <mxPoint x="540" y="457" />
              <mxPoint x="575" y="457" />
              <mxPoint x="575" y="577" />
            </Array>
          </mxGeometry>
        </mxCell>
        <mxCell id="47LJHIuniCc6gDE1EgaM-24" style="edgeStyle=orthogonalEdgeStyle;rounded=1;orthogonalLoop=1;jettySize=auto;html=1;exitX=1;exitY=0.25;exitDx=0;exitDy=0;entryX=0;entryY=0.25;entryDx=0;entryDy=0;strokeColor=#1443ff;elbow=vertical;" parent="1" source="47LJHIuniCc6gDE1EgaM-8" target="47LJHIuniCc6gDE1EgaM-14" edge="1">
          <mxGeometry relative="1" as="geometry">
            <mxPoint x="418.6666666666667" y="748.5714285714286" as="targetPoint" />
            <Array as="points">
              <mxPoint x="549" y="454" />
              <mxPoint x="549" y="365" />
            </Array>
          </mxGeometry>
        </mxCell>
        <mxCell id="47LJHIuniCc6gDE1EgaM-8" value="&lt;div style=&quot;box-sizing: border-box; width: 100%; background: rgb(228, 228, 228); padding: 0px;&quot;&gt;&lt;div style=&quot;&quot;&gt;&amp;nbsp;Match&lt;/div&gt;&lt;div style=&quot;&quot;&gt;&amp;nbsp; PK&lt;span style=&quot;white-space: pre;&quot;&gt;&#x9;&amp;nbsp;&lt;/span&gt;&amp;nbsp; &amp;nbsp; MatchID&lt;/div&gt;&lt;div style=&quot;&quot;&gt;&amp;nbsp; FK&lt;span style=&quot;white-space: pre;&quot;&gt;&#x9;&amp;nbsp;&lt;/span&gt;&amp;nbsp; &amp;nbsp; HomeTeamID&lt;/div&gt;&lt;div style=&quot;&quot;&gt;&amp;nbsp; FK&lt;span style=&quot;white-space: pre;&quot;&gt;&#x9;&lt;/span&gt;&amp;nbsp; &amp;nbsp; &amp;nbsp;AwayTeamID&lt;/div&gt;&lt;div style=&quot;&quot;&gt;&lt;span style=&quot;white-space: pre;&quot;&gt;&#x9;&lt;/span&gt;&amp;nbsp; &amp;nbsp; &amp;nbsp;Stadium&lt;br&gt;&lt;/div&gt;&lt;div style=&quot;&quot;&gt;&lt;span style=&quot;white-space: pre;&quot;&gt;&#x9;&lt;/span&gt;&amp;nbsp; &amp;nbsp; &amp;nbsp;Result&lt;br&gt;&lt;/div&gt;&lt;div style=&quot;&quot;&gt;&lt;br&gt;&lt;/div&gt;&lt;div style=&quot;&quot;&gt;&lt;br&gt;&lt;/div&gt;&lt;div style=&quot;&quot;&gt;&lt;br&gt;&lt;/div&gt;&lt;div style=&quot;&quot;&gt;&lt;br&gt;&lt;/div&gt;&lt;div style=&quot;&quot;&gt;&lt;br&gt;&lt;/div&gt;&lt;/div&gt;" style="verticalAlign=top;align=left;overflow=fill;html=1;whiteSpace=wrap;" parent="1" vertex="1">
          <mxGeometry x="384" y="437.14" width="156" height="88.57" as="geometry" />
        </mxCell>
        <mxCell id="47LJHIuniCc6gDE1EgaM-10" value="&lt;div style=&quot;box-sizing: border-box; width: 100%; background: rgb(228, 228, 228); padding: 0px;&quot;&gt;&lt;div style=&quot;&quot;&gt;&amp;nbsp;PlayerParticipation&lt;/div&gt;&lt;div style=&quot;&quot;&gt;&amp;nbsp; PK &amp;amp; FK&lt;span style=&quot;white-space: pre;&quot;&gt;&amp;nbsp;&lt;/span&gt;&amp;nbsp; &amp;nbsp; MatchID&lt;/div&gt;&lt;div style=&quot;&quot;&gt;&amp;nbsp; PK &amp;amp; FK&amp;nbsp; &amp;nbsp; &amp;nbsp;PlayerID&lt;/div&gt;&lt;div style=&quot;&quot;&gt;&amp;nbsp; &lt;span style=&quot;white-space: pre;&quot;&gt;&#x9;&lt;/span&gt;&amp;nbsp; &amp;nbsp; &amp;nbsp;&lt;span style=&quot;white-space: pre;&quot;&gt;&#x9;&lt;/span&gt;&amp;nbsp; &amp;nbsp; &amp;nbsp;GoalsScored&lt;/div&gt;&lt;div style=&quot;&quot;&gt;&lt;span style=&quot;white-space: pre;&quot;&gt;&#x9;&lt;/span&gt;&lt;span style=&quot;white-space: pre;&quot;&gt;&#x9;&lt;/span&gt;&amp;nbsp; &amp;nbsp; &amp;nbsp;YellowCard&lt;br&gt;&lt;/div&gt;&lt;div style=&quot;&quot;&gt;&lt;span style=&quot;white-space: pre;&quot;&gt;&#x9;&lt;/span&gt;&amp;nbsp; &amp;nbsp; &amp;nbsp; &amp;nbsp; &amp;nbsp; &amp;nbsp; &amp;nbsp;RedCard&lt;br&gt;&lt;/div&gt;&lt;div style=&quot;&quot;&gt;&lt;span style=&quot;white-space: pre;&quot;&gt;&#x9;&lt;/span&gt;&amp;nbsp; &amp;nbsp; &amp;nbsp;&lt;br&gt;&lt;/div&gt;&lt;div style=&quot;&quot;&gt;&lt;br&gt;&lt;/div&gt;&lt;div style=&quot;&quot;&gt;&lt;br&gt;&lt;/div&gt;&lt;div style=&quot;&quot;&gt;&lt;br&gt;&lt;/div&gt;&lt;div style=&quot;&quot;&gt;&lt;br&gt;&lt;/div&gt;&lt;div style=&quot;&quot;&gt;&lt;br&gt;&lt;/div&gt;&lt;/div&gt;" style="verticalAlign=top;align=left;overflow=fill;html=1;whiteSpace=wrap;" parent="1" vertex="1">
          <mxGeometry x="63.33" y="470" width="156" height="95.71" as="geometry" />
        </mxCell>
        <mxCell id="47LJHIuniCc6gDE1EgaM-11" value="&lt;div style=&quot;box-sizing: border-box; width: 100%; background: rgb(228, 228, 228); padding: 0px;&quot;&gt;&lt;div style=&quot;&quot;&gt;&amp;nbsp;Substitution&lt;/div&gt;&lt;div style=&quot;&quot;&gt;&amp;nbsp; PK&lt;span style=&quot;white-space: pre;&quot;&gt;&#x9;&amp;nbsp;&lt;/span&gt;&amp;nbsp; &amp;nbsp; SubID&lt;/div&gt;&lt;div style=&quot;&quot;&gt;&amp;nbsp; FK&lt;span style=&quot;white-space: pre;&quot;&gt;&#x9;&amp;nbsp;&lt;/span&gt;&amp;nbsp; &amp;nbsp; MatchID&lt;/div&gt;&lt;div style=&quot;&quot;&gt;&amp;nbsp; FK&lt;span style=&quot;white-space: pre;&quot;&gt;&#x9;&lt;/span&gt;&amp;nbsp; &amp;nbsp; &amp;nbsp;InPlayerID&lt;/div&gt;&lt;div style=&quot;&quot;&gt;&amp;nbsp; FK&lt;span style=&quot;white-space: pre;&quot;&gt;&#x9;&lt;/span&gt;&amp;nbsp; &amp;nbsp; &amp;nbsp;OutPlayerID&lt;br&gt;&lt;/div&gt;&lt;div style=&quot;&quot;&gt;&lt;span style=&quot;white-space: pre;&quot;&gt;&#x9;&lt;/span&gt;&amp;nbsp; &amp;nbsp; &amp;nbsp;TimeMinute&lt;br&gt;&lt;/div&gt;&lt;div style=&quot;&quot;&gt;&lt;br&gt;&lt;/div&gt;&lt;div style=&quot;&quot;&gt;&lt;br&gt;&lt;/div&gt;&lt;div style=&quot;&quot;&gt;&lt;br&gt;&lt;/div&gt;&lt;div style=&quot;&quot;&gt;&lt;br&gt;&lt;/div&gt;&lt;div style=&quot;&quot;&gt;&lt;br&gt;&lt;/div&gt;&lt;/div&gt;" style="verticalAlign=top;align=left;overflow=fill;html=1;whiteSpace=wrap;" parent="1" vertex="1">
          <mxGeometry x="644" y="542.86" width="156" height="87.14" as="geometry" />
        </mxCell>
        <mxCell id="47LJHIuniCc6gDE1EgaM-23" style="edgeStyle=orthogonalEdgeStyle;rounded=1;orthogonalLoop=1;jettySize=auto;html=1;exitX=0;exitY=0.25;exitDx=0;exitDy=0;entryX=0;entryY=0.444;entryDx=0;entryDy=0;entryPerimeter=0;strokeColor=#1443ff;elbow=vertical;" parent="1" source="47LJHIuniCc6gDE1EgaM-12" target="47LJHIuniCc6gDE1EgaM-14" edge="1">
          <mxGeometry relative="1" as="geometry">
            <mxPoint x="644" y="594.2857142857142" as="targetPoint" />
          </mxGeometry>
        </mxCell>
        <mxCell id="47LJHIuniCc6gDE1EgaM-12" value="&lt;div style=&quot;box-sizing: border-box; width: 100%; background: rgb(228, 228, 228); padding: 0px;&quot;&gt;&lt;div style=&quot;&quot;&gt;&amp;nbsp;Referee&lt;/div&gt;&lt;div style=&quot;&quot;&gt;&amp;nbsp; PK&lt;span style=&quot;white-space: pre;&quot;&gt;&#x9;&amp;nbsp;&lt;/span&gt;&amp;nbsp; &amp;nbsp; RefereeID&lt;/div&gt;&lt;div style=&quot;&quot;&gt;&amp;nbsp; &lt;span style=&quot;white-space: pre;&quot;&gt;&#x9;&amp;nbsp;&lt;/span&gt;&amp;nbsp; &amp;nbsp; RefereeName&lt;/div&gt;&lt;div style=&quot;&quot;&gt;&amp;nbsp; &lt;span style=&quot;white-space: pre;&quot;&gt;&#x9;&lt;/span&gt;&amp;nbsp; &amp;nbsp; &amp;nbsp;RefereeBirthDay&lt;/div&gt;&lt;div style=&quot;&quot;&gt;&amp;nbsp; &lt;span style=&quot;white-space: pre;&quot;&gt;&#x9;&lt;/span&gt;&amp;nbsp; &amp;nbsp; &amp;nbsp;ExperienceYears&lt;br&gt;&lt;/div&gt;&lt;div style=&quot;&quot;&gt;&lt;span style=&quot;white-space: pre;&quot;&gt;&#x9;&lt;/span&gt;&amp;nbsp; &amp;nbsp; &amp;nbsp;&lt;br&gt;&lt;/div&gt;&lt;div style=&quot;&quot;&gt;&lt;br&gt;&lt;/div&gt;&lt;div style=&quot;&quot;&gt;&lt;br&gt;&lt;/div&gt;&lt;div style=&quot;&quot;&gt;&lt;br&gt;&lt;/div&gt;&lt;div style=&quot;&quot;&gt;&lt;br&gt;&lt;/div&gt;&lt;div style=&quot;&quot;&gt;&lt;br&gt;&lt;/div&gt;&lt;/div&gt;" style="verticalAlign=top;align=left;overflow=fill;html=1;whiteSpace=wrap;" parent="1" vertex="1">
          <mxGeometry x="644" y="448.57142857142856" width="156" height="77.14285714285714" as="geometry" />
        </mxCell>
        <mxCell id="47LJHIuniCc6gDE1EgaM-14" value="&lt;div style=&quot;box-sizing: border-box; width: 100%; background: rgb(228, 228, 228); padding: 0px;&quot;&gt;&lt;div style=&quot;&quot;&gt;&amp;nbsp;MatchReferee&lt;/div&gt;&lt;div style=&quot;&quot;&gt;&amp;nbsp; PK &amp;amp; FK&lt;span style=&quot;white-space: pre;&quot;&gt;&amp;nbsp;&lt;/span&gt;&amp;nbsp; &amp;nbsp; MatchID&lt;/div&gt;&lt;div style=&quot;&quot;&gt;&amp;nbsp; PK &amp;amp; FK&amp;nbsp; &amp;nbsp; &amp;nbsp;RefereeID&lt;/div&gt;&lt;div style=&quot;&quot;&gt;&amp;nbsp; &lt;span style=&quot;white-space: pre;&quot;&gt;&#x9;&lt;/span&gt;&amp;nbsp; &amp;nbsp; &amp;nbsp;&lt;span style=&quot;white-space: pre;&quot;&gt;&#x9;&lt;/span&gt;&amp;nbsp; &amp;nbsp; &amp;nbsp;RefereeRoel&lt;/div&gt;&lt;div style=&quot;&quot;&gt;&lt;span style=&quot;white-space: pre;&quot;&gt;&#x9;&lt;/span&gt;&lt;span style=&quot;white-space: pre;&quot;&gt;&#x9;&lt;/span&gt;&amp;nbsp; &amp;nbsp; &amp;nbsp;&lt;br&gt;&lt;/div&gt;&lt;div style=&quot;&quot;&gt;&lt;span style=&quot;white-space: pre;&quot;&gt;&#x9;&lt;/span&gt;&amp;nbsp; &amp;nbsp; &amp;nbsp; &amp;nbsp; &amp;nbsp; &amp;nbsp; &amp;nbsp;&lt;br&gt;&lt;/div&gt;&lt;div style=&quot;&quot;&gt;&lt;span style=&quot;white-space: pre;&quot;&gt;&#x9;&lt;/span&gt;&amp;nbsp; &amp;nbsp; &amp;nbsp;&lt;br&gt;&lt;/div&gt;&lt;div style=&quot;&quot;&gt;&lt;br&gt;&lt;/div&gt;&lt;div style=&quot;&quot;&gt;&lt;br&gt;&lt;/div&gt;&lt;div style=&quot;&quot;&gt;&lt;br&gt;&lt;/div&gt;&lt;div style=&quot;&quot;&gt;&lt;br&gt;&lt;/div&gt;&lt;div style=&quot;&quot;&gt;&lt;br&gt;&lt;/div&gt;&lt;/div&gt;" style="verticalAlign=top;align=left;overflow=fill;html=1;whiteSpace=wrap;" parent="1" vertex="1">
          <mxGeometry x="644" y="345.71428571428567" width="156" height="77.14285714285714" as="geometry" />
        </mxCell>
        <mxCell id="47LJHIuniCc6gDE1EgaM-16" style="edgeStyle=orthogonalEdgeStyle;rounded=1;orthogonalLoop=1;jettySize=auto;html=1;exitX=0;exitY=0.25;exitDx=0;exitDy=0;entryX=-0.002;entryY=0.376;entryDx=0;entryDy=0;entryPerimeter=0;strokeColor=#14b9ff;elbow=vertical;" parent="1" source="47LJHIuniCc6gDE1EgaM-5" target="47LJHIuniCc6gDE1EgaM-8" edge="1">
          <mxGeometry relative="1" as="geometry">
            <mxPoint x="46" y="1245.7142857142856" as="targetPoint" />
            <Array as="points">
              <mxPoint x="384" y="226" />
              <mxPoint x="271" y="226" />
              <mxPoint x="271" y="470" />
              <mxPoint x="384" y="470" />
            </Array>
          </mxGeometry>
        </mxCell>
      </root>
    </mxGraphModel>
  </diagram>
</mxfile>
